<svg fill="hsl(193, 100%, 96%)" xmlns="http://www.w3.org/2000/svg"  viewBox="0 0 48 48" width="48px" height="48px"><path d="M 26.5 4 A 1.50015 1.50015 0 1 0 26.5 7 C 33.973281 7 40 13.026719 40 20.5 A 1.50015 1.50015 0 1 0 43 20.5 C 43 11.405281 35.594719 4 26.5 4 z M 13.396484 4.0117188 C 12.897172 3.9728906 12.383406 4.0282031 11.878906 4.1894531 L 9.7265625 4.8789062 C 7.5915625 5.5609063 5.9557344 7.3885469 5.4277344 9.6855469 C 4.1727344 15.143547 5.6784063 21.788141 9.9414062 29.619141 C 14.201406 37.440141 18.869266 42.142562 23.947266 43.726562 C 26.098266 44.397562 28.424734 43.805875 30.052734 42.171875 L 31.6875 40.529297 C 33.2135 38.997297 33.435078 36.504266 32.205078 34.697266 L 29.740234 31.076172 C 28.682234 29.522172 26.803125 28.8625 25.078125 29.4375 L 21.332031 30.6875 C 20.832031 30.8545 20.271187 30.766734 19.867188 30.427734 C 18.342188 29.146734 17.048328 27.591625 15.986328 25.765625 C 14.922328 23.935625 14.235781 22.080219 13.925781 20.199219 C 13.844781 19.707219 14.032531 19.209234 14.394531 18.865234 L 17.607422 15.816406 C 18.969422 14.524406 19.383766 12.446687 18.634766 10.679688 L 16.916016 6.625 C 16.268016 5.0965 14.894422 4.1282031 13.396484 4.0117188 z M 26.5 10 A 1.50015 1.50015 0 1 0 26.5 13 C 30.660499 13 34 16.339501 34 20.5 A 1.50015 1.50015 0 1 0 37 20.5 C 37 14.718499 32.281501 10 26.5 10 z M 26.5 16 A 1.50015 1.50015 0 1 0 26.5 19 C 27.346499 19 28 19.653501 28 20.5 A 1.50015 1.50015 0 1 0 31 20.5 C 31 18.032499 28.967501 16 26.5 16 z"/></svg>